HIERARCHY
ROOT hip
{
  OFFSET 0 0 0
  CHANNELS 6 Xposition Yposition Zposition Zrotation Yrotation Xrotation
  JOINT abdomen
  {
    OFFSET 0 20.6881 -0.73152
    CHANNELS 3 Zrotation Xrotation Yrotation
    JOINT chest
    {
      OFFSET 0 11.7043 -0.48768
      CHANNELS 3 Zrotation Xrotation Yrotation
      JOINT neck
      {
        OFFSET 0 22.1894 -2.19456
        CHANNELS 3 Zrotation Xrotation Yrotation
        JOINT head
        {
          OFFSET -0.24384 7.07133 1.2192
          CHANNELS 3 Zrotation Xrotation Yrotation
          JOINT leftEye
          {
            OFFSET 4.14528 8.04674 8.04672
            CHANNELS 3 Zrotation Xrotation Yrotation
            End Site
            {
              OFFSET 1 0 0
            }
          }
          JOINT rightEye
          {
            OFFSET -3.6576 8.04674 8.04672
            CHANNELS 3 Zrotation Xrotation Yrotation
            End Site
            {
              OFFSET 1 0 0
            }
          }
        }
      }
      JOINT rCollar
      {
        OFFSET -2.68224 19.2634 -4.8768
        CHANNELS 3 Zrotation Xrotation Yrotation
        JOINT rShldr
        {
          OFFSET -8.77824 -1.95073 1.46304
          CHANNELS 3 Zrotation Xrotation Yrotation
          JOINT rForeArm
          {
            OFFSET -28.1742 -1.7115 0.48768
            CHANNELS 3 Zrotation Xrotation Yrotation
            JOINT rHand
            {
              OFFSET -22.5879 0.773209 7.07136
              CHANNELS 3 Zrotation Xrotation Yrotation
              JOINT rThumb1
              {
                OFFSET -1.2192 -0.487915 3.41376
                CHANNELS 3 Zrotation Xrotation Yrotation
                JOINT rThumb2
                {
                  OFFSET -3.37035 -0.52449 3.41376
                  CHANNELS 3 Zrotation Xrotation Yrotation
                  End Site
                  {
                    OFFSET -1.78271 -1.18214 1.43049
                  }
                }
              }
              JOINT rIndex1
              {
                OFFSET -7.75947 0.938293 5.60832
                CHANNELS 3 Zrotation Xrotation Yrotation
                JOINT rIndex2
                {
                  OFFSET -2.54057 -0.884171 1.56538
                  CHANNELS 3 Zrotation Xrotation Yrotation
                  End Site
                  {
                    OFFSET -1.62519 -0.234802 1.16502
                  }
                }
              }
              JOINT rMid1
              {
                OFFSET -8.24714 1.18213 3.41376
                CHANNELS 3 Zrotation Xrotation Yrotation
                JOINT rMid2
                {
                  OFFSET -3.10165 -0.590103 1.0647
                  CHANNELS 3 Zrotation Xrotation Yrotation
                  End Site
                  {
                    OFFSET -2.48547 -0.328903 0.83742
                  }
                }
              }
              JOINT rRing1
              {
                OFFSET -8.82822 0.546677 1.51678
                CHANNELS 3 Zrotation Xrotation Yrotation
                JOINT rRing2
                {
                  OFFSET -2.60934 -0.819778 -0.0198488
                  CHANNELS 3 Zrotation Xrotation Yrotation
                  End Site
                  {
                    OFFSET -2.33842 -0.294052 0.168128
                  }
                }
              }
              JOINT rPinky1
              {
                OFFSET -8.27202 -0.0477905 -0.4584
                CHANNELS 3 Zrotation Xrotation Yrotation
                JOINT rPinky2
                {
                  OFFSET -1.82734 -0.647385 -0.700984
                  CHANNELS 3 Zrotation Xrotation Yrotation
                  End Site
                  {
                    OFFSET -1.69225 -0.51767 -0.607171
                  }
                }
              }
            }
          }
        }
      }
      JOINT lCollar
      {
        OFFSET 2.68224 19.2634 -4.8768
        CHANNELS 3 Zrotation Xrotation Yrotation
        JOINT lShldr
        {
          OFFSET 8.77824 -1.95073 1.46304
          CHANNELS 3 Zrotation Xrotation Yrotation
          JOINT lForeArm
          {
            OFFSET 28.1742 -1.7115 0.48768
            CHANNELS 3 Zrotation Xrotation Yrotation
            JOINT lHand
            {
              OFFSET 22.5879 0.773209 7.07136
              CHANNELS 3 Zrotation Xrotation Yrotation
              JOINT lThumb1
              {
                OFFSET 1.2192 -0.487915 3.41376
                CHANNELS 3 Zrotation Xrotation Yrotation
                JOINT lThumb2
                {
                  OFFSET 3.37035 -0.52449 3.41376
                  CHANNELS 3 Zrotation Xrotation Yrotation
                  End Site
                  {
                    OFFSET 1.78271 -1.18214 1.43049
                  }
                }
              }
              JOINT lIndex1
              {
                OFFSET 7.75947 0.938293 5.60832
                CHANNELS 3 Zrotation Xrotation Yrotation
                JOINT lIndex2
                {
                  OFFSET 2.54057 -0.884171 1.56538
                  CHANNELS 3 Zrotation Xrotation Yrotation
                  End Site
                  {
                    OFFSET 1.62519 -0.234802 1.16502
                  }
                }
              }
              JOINT lMid1
              {
                OFFSET 8.24714 1.18213 3.41376
                CHANNELS 3 Zrotation Xrotation Yrotation
                JOINT lMid2
                {
                  OFFSET 3.10165 -0.590103 1.0647
                  CHANNELS 3 Zrotation Xrotation Yrotation
                  End Site
                  {
                    OFFSET 2.48547 -0.328903 0.83742
                  }
                }
              }
              JOINT lRing1
              {
                OFFSET 8.82822 0.546677 1.51678
                CHANNELS 3 Zrotation Xrotation Yrotation
                JOINT lRing2
                {
                  OFFSET 2.60934 -0.819778 -0.0198488
                  CHANNELS 3 Zrotation Xrotation Yrotation
                  End Site
                  {
                    OFFSET 2.33842 -0.294052 0.168128
                  }
                }
              }
              JOINT lPinky1
              {
                OFFSET 8.27202 -0.0477905 -0.4584
                CHANNELS 3 Zrotation Xrotation Yrotation
                JOINT lPinky2
                {
                  OFFSET 1.82734 -0.647385 -0.700984
                  CHANNELS 3 Zrotation Xrotation Yrotation
                  End Site
                  {
                    OFFSET 1.69225 -0.51767 -0.607171
                  }
                }
              }
            }
          }
        }
      }
    }
  }
  JOINT rButtock
  {
    OFFSET -8.77824 4.35084 1.2192
    CHANNELS 3 Zrotation Xrotation Yrotation
    JOINT rThigh
    {
      OFFSET 0 -1.70687 -2.19456
      CHANNELS 3 Zrotation Xrotation Yrotation
      JOINT rShin
      {
        OFFSET 0 -36.8199 0.73152
        CHANNELS 3 Zrotation Xrotation Yrotation
        JOINT rFoot
        {
          OFFSET 0.73152 -45.1104 -5.12064
          CHANNELS 3 Zrotation Xrotation Yrotation
          End Site
          {
            OFFSET -1.1221 -3.69964 12.103
          }
        }
      }
    }
  }
  JOINT lButtock
  {
    OFFSET 8.77824 4.35084 1.2192
    CHANNELS 3 Zrotation Xrotation Yrotation
    JOINT lThigh
    {
      OFFSET 0 -1.70687 -2.19456
      CHANNELS 3 Zrotation Xrotation Yrotation
      JOINT lShin
      {
        OFFSET 0 -36.8199 0.73152
        CHANNELS 3 Zrotation Xrotation Yrotation
        JOINT lFoot
        {
          OFFSET -0.73152 -45.1104 -5.12064
          CHANNELS 3 Zrotation Xrotation Yrotation
          End Site
          {
            OFFSET 1.1221 -3.69964 12.103
          }
        }
      }
    }
  }
}
MOTION
Frames:	4
Frame Time:	0.00833333
-1.18459 66.2915 -135.865 -2.3427 2.7871 30.1919 0.510028 21.3463 0.100651 2.54632 -12.2399 0.346503 -0.0886723 1.93802 -0.560408 0.877108 -38.8688 -0.875697 -0.0 0.0 0.0 -0.0 0.0 0.0 8.3008e-14 -1.34578e-13 -5.06342e-14 55.526 32.6763 33.8895 -28.6008 -32.0143 67.3377 -0.0755094 -7.56513 -1.06979 3.40041e-09 1.66583e-08 -5.80054e-09 5.9075e-09 2.86963e-08 -1.0009e-08 3.40042e-09 1.66582e-08 -5.80054e-09 7.73091 5.47488 0.417314 3.40042e-09 1.66582e-08 -5.80054e-09 2.90554 0.965183 0.102902 3.40042e-09 1.66582e-08 -5.80053e-09 10.2786 0.731801 0.0259123 3.40041e-09 1.66583e-08 -5.80053e-09 2.22167 -0.733487 -0.20892 8.30323e-14 -1.34577e-13 -5.0864e-14 -71.2188 29.1718 -24.1284 28.6013 -41.8166 -83.834 163.505 19.6127 -177.13 1.10855e-09 -3.54692e-09 2.71081e-09 1.89741e-09 -5.70677e-09 4.08177e-09 1.10854e-09 -3.54693e-09 2.71082e-09 -7.73091 5.47488 -0.417314 1.10855e-09 -3.54692e-09 2.71081e-09 -2.90554 0.965183 -0.102902 1.10854e-09 -3.54692e-09 2.71081e-09 -10.2786 0.731801 -0.0259123 1.10855e-09 -3.54692e-09 2.7108e-09 -2.22167 -0.733487 0.20892 -2.03217e-16 0.0 -3.88251e-19 -1.01479 -45.0857 -3.91231 -1.44548 65.7153 2.28091 -7.31225 -24.0829 -13.6684 2.03217e-16 0.0 3.88251e-19 6.71977 -46.7493 6.55929 1.52228 66.3841 -2.12426 1.26237 -28.4976 1.71881
-1.21357 67.2274 -132.17 -1.6593 3.4056 28.3928 -0.212033 19.4519 -0.619508 2.91851 -12.2303 0.128771 0.130573 1.72241 -0.596071 1.36279 -35.4551 -0.857912 -0.0 0.0 0.0 -0.0 0.0 0.0 7.06758e-14 -2.20926e-13 -1.22766e-13 51.0153 32.7538 35.1201 -28.7501 -35.6587 74.2763 -0.0946726 -8.39961 -1.18969 2.86537e-09 2.67606e-08 -4.23628e-09 4.97092e-09 4.6157e-08 -7.30024e-09 2.86538e-09 2.67606e-08 -4.23628e-09 7.73091 5.47488 0.417314 2.86537e-09 2.67606e-08 -4.23628e-09 2.90554 0.965183 0.102902 2.86538e-09 2.67606e-08 -4.23628e-09 10.2786 0.731801 0.0259123 2.86537e-09 2.67606e-08 -4.23627e-09 2.22167 -0.733487 -0.20892 7.06352e-14 -2.20923e-13 -1.23068e-13 -66.4687 29.1509 -26.7671 27.1703 -45.3804 -91.7277 163.44 20.7972 -176.941 6.95438e-10 -7.38208e-10 1.26832e-09 1.16743e-09 -1.00262e-09 1.8808e-09 6.95427e-10 -7.38223e-10 1.26834e-09 -7.73091 5.47488 -0.417314 6.95438e-10 -7.38209e-10 1.26833e-09 -2.90554 0.965183 -0.102902 6.95432e-10 -7.38206e-10 1.26833e-09 -10.2786 0.731801 -0.0259123 6.95438e-10 -7.3821e-10 1.26832e-09 -2.22167 -0.733487 0.20892 -2.03217e-16 0.0 -3.88251e-19 -1.37852 -38.4422 -4.06469 -1.12839 61.8176 1.94295 -7.31081 -24.3398 -13.6653 2.03217e-16 0.0 3.88251e-19 5.48121 -40.2878 5.01372 1.19828 62.4538 -1.73244 0.421521 -28.1917 0.274244
-0.905292 68.6876 -127.766 -0.2115 3.6193 26.2409 -0.708724 17.3469 -1.04824 3.13259 -11.8593 -0.0219202 0.143311 1.6734 -0.63387 1.81454 -32.3241 -0.827108 -0.0 0.0 0.0 -0.0 0.0 0.0 6.38058e-14 -2.60807e-13 -1.60121e-13 46.9717 32.8825 35.0622 -28.3277 -38.0537 80.4997 -0.0833197 -8.20658 -1.16139 2.30251e-09 3.114e-08 -2.92458e-09 3.98985e-09 5.37339e-08 -5.03142e-09 2.30251e-09 3.114e-08 -2.92458e-09 7.73091 5.47488 0.417314 2.30251e-09 3.114e-08 -2.92458e-09 2.90554 0.965183 0.102902 2.30252e-09 3.114e-08 -2.92458e-09 10.2786 0.731801 0.0259123 2.30251e-09 3.114e-08 -2.92457e-09 2.22167 -0.733487 -0.20892 6.37187e-14 -2.60804e-13 -1.60469e-13 -62.5223 28.6002 -27.5312 25.1885 -47.6962 -99.269 163.384 21.7156 -176.791 4.03051e-10 1.09322e-09 3.09579e-10 6.5405e-10 2.04723e-09 4.2126e-10 4.03039e-10 1.0932e-09 3.09595e-10 -7.73091 5.47488 -0.417314 4.0305e-10 1.09322e-09 3.09586e-10 -2.90554 0.965183 -0.102902 4.03045e-10 1.09322e-09 3.09586e-10 -10.2786 0.731801 -0.0259123 4.03052e-10 1.09322e-09 3.09576e-10 -2.22167 -0.733487 0.20892 -2.03217e-16 0.0 -3.88251e-19 -1.69345 -31.6865 -4.04538 -0.844827 57.3601 1.61768 -6.02879 -21.5125 -12.3192 2.03217e-16 0.0 3.88251e-19 4.67864 -33.5116 3.72983 0.91707 57.7486 -1.40548 -0.710255 -25.0766 -1.94458
-0.651855 70.7904 -122.478 0.9012 3.7901 24.1441 -0.794525 14.7947 -1.08992 3.11214 -10.9146 -0.0825227 -0.180068 1.87088 -0.698261 2.29366 -29.4776 -0.801097 -0.0 0.0 0.0 -0.0 0.0 0.0 6.68599e-14 -2.30331e-13 -1.45043e-13 43.3822 33.0842 33.0119 -27.9222 -40.1362 85.1328 -0.0253071 -6.1946 -0.872369 1.63128e-09 2.6617e-08 -1.86818e-09 2.82663e-09 4.59372e-08 -3.2091e-09 1.63128e-09 2.6617e-08 -1.86818e-09 7.73091 5.47488 0.417314 1.63128e-09 2.6617e-08 -1.86818e-09 2.90554 0.965183 0.102902 1.63129e-09 2.6617e-08 -1.86818e-09 10.2786 0.731801 0.0259123 1.63127e-09 2.6617e-08 -1.86817e-09 2.22167 -0.733487 -0.20892 6.6751e-14 -2.30328e-13 -1.45399e-13 -59.2996 27.2461 -26.0161 23.4378 -49.547 -105.064 163.345 22.3137 -176.693 2.84866e-10 1.52543e-09 5.68804e-11 4.5371e-10 2.72312e-09 4.46512e-11 2.84856e-10 1.52542e-09 5.68956e-11 -7.73091 5.47488 -0.417314 2.84866e-10 1.52543e-09 5.68868e-11 -2.90554 0.965183 -0.102902 2.84861e-10 1.52544e-09 5.6885e-11 -10.2786 0.731801 -0.0259123 2.84867e-10 1.52543e-09 5.68743e-11 -2.22167 -0.733487 0.20892 -2.03217e-16 0.0 -3.88251e-19 -2.14156 -24.026 -3.95506 -0.560114 51.3228 1.24874 -3.31925 -13.5817 -9.08752 2.03217e-16 0.0 3.88251e-19 4.32799 -25.6113 2.53874 0.625904 51.1953 -1.093 -1.71191 -17.5397 -5.28957
